<svg xmlns="http://www.w3.org/2000/svg" viewBox="0 0 265.6 271.38"><defs><style>.cls-1{fill:#ea118d;}.cls-2{fill:#30332e;}.cls-3{fill:#63bbc1;}.cls-4{fill:#fffbfd;}</style></defs><title>clintLeeLogo</title><g id="Layer_2" data-name="Layer 2"><g id="Layer_1-2" data-name="Layer 1"><path class="cls-1" d="M0,64.54V189.37a14.47,14.47,0,0,0,21.15,12.84l93-48.37A14.47,14.47,0,0,0,122,141V14.49A14.47,14.47,0,0,0,100.62,1.75l-93,50A14.49,14.49,0,0,0,0,64.54Z"/><path class="cls-2" d="M221.62,211.69l-83-44.64a14.48,14.48,0,0,0-13.54-.09l-82.64,43a14.47,14.47,0,0,0,1.17,26.23l83,34.13a14.56,14.56,0,0,0,10.8.08l82.58-32.47A14.47,14.47,0,0,0,221.62,211.69Z"/><path class="cls-3" d="M143.65,14.84V141a14.47,14.47,0,0,0,7.62,12.74l93,50.05A14.47,14.47,0,0,0,265.6,191V66.55a14.49,14.49,0,0,0-7.44-12.65l-93-51.71A14.48,14.48,0,0,0,143.65,14.84Z"/><path class="cls-4" d="M96.17,95.56v24.89c0,6.26-5.12,13.61-11.23,16.78l-48.21,25c-6.12,3.17-10.95,1-10.95-5.28V82.73c0-5.83,4.83-13.32,10.95-16.49l48.21-25c6.11-3.17,11.23-.85,11.23,5V71L71.43,83.79V70.43a.88.88,0,0,0-1.28-.9L52.08,78.9a3,3,0,0,0-1.56,2.37V132.9c0,.85.71,1,1.56.61l18.07-9.37a2.71,2.71,0,0,0,1.28-2.09V108.4Z"/><path class="cls-4" d="M177.19,40.76l24.47,12.69v74.82L232.06,144v20.65l-54.87-28.47Z"/></g></g></svg>